<svg xmlns="http://www.w3.org/2000/svg" viewBox="0 0 16 16" shape-rendering="crispEdges"><path fill="#1c1410" d="M8 2h4v1h-4zM6 3h2v1h-2zM12 3h2v1h-2zM5 4h1v1h-1zM14 4h1v1h-1zM5 5h1v1h-1zM14 5h1v1h-1zM6 6h1v1h-1zM13 6h1v1h-1zM7 7h1v1h-1zM12 7h1v1h-1zM6 8h1v1h-1zM8 8h1v1h-1zM11 8h1v1h-1zM5 9h1v1h-1zM8 9h3v1h-3zM4 10h1v1h-1zM7 10h1v1h-1zM3 11h1v1h-1zM6 11h1v1h-1zM2 12h1v1h-1zM5 12h1v1h-1zM1 13h1v1h-1zM4 13h1v1h-1zM0 14h1v1h-1zM3 14h1v1h-1zM1 15h2v1h-2z"/><path fill="#ffffff" d="M8 3h1v1h-1zM7 4h1v1h-1z"/><path fill="#ecd8b8" d="M9 3h3v1h-3zM6 4h1v1h-1zM8 4h6v1h-6z"/><path fill="#d2b48c" d="M6 5h3v1h-3zM10 5h1v1h-1zM12 5h2v1h-2zM7 6h2v1h-2zM10 6h1v1h-1zM12 6h1v1h-1z"/><path fill="#a08560" d="M9 5h1v1h-1zM11 5h1v1h-1zM9 6h1v1h-1zM11 6h1v1h-1zM8 7h4v1h-4zM9 8h2v1h-2z"/><path fill="#d8e0ea" d="M7 8h1v1h-1zM6 9h1v1h-1zM5 10h1v1h-1z"/><path fill="#9aa4b4" d="M7 9h1v1h-1zM6 10h1v1h-1zM5 11h1v1h-1z"/><path fill="#8a5a2c" d="M4 11h1v1h-1zM3 12h2v1h-2zM2 13h2v1h-2zM1 14h2v1h-2z"/></svg>
